<?xml version="1.0" encoding="utf-8"?>
<!-- Generator: Adobe Illustrator 19.2.1, SVG Export Plug-In . SVG Version: 6.00 Build 0)  -->
<svg version="1.1" id="layer" xmlns="http://www.w3.org/2000/svg" xmlns:xlink="http://www.w3.org/1999/xlink" x="0px" y="0px"
	 viewBox="0 0 652 652" style="enable-background:new 0 0 652 652;" xml:space="preserve">
<style type="text/css">
	.st0{fill:#00C800;}
</style>
<path class="st0" d="M275.1,349h-11.9v-32.8c0-7.2-4.3-12.6-10.1-12.6c-5.8,0-10.1,5.1-10.1,12.6V349H231v-32.8
	c0-8.3-5.1-12.6-10.1-12.6c-5.8,0-10.1,5.1-10.1,12.6V349h-11.9v-32.5c0-14.8,9-24.9,22-24.9c6.1,0,11.2,2.5,15.9,7.6
	c4.3-5.1,9.7-7.6,16.2-7.6c13,0,21.6,10.5,21.6,24.9V349H275.1z M296.7,349h-11.9v-55.9h11.9V349z M290.6,284.8
	c-4.3,0-7.6-3.2-7.6-7.6s3.2-7.6,7.6-7.6c4.3,0,7.6,3.2,7.6,7.6C298.5,281.6,294.9,284.8,290.6,284.8z M334.2,350.5
	c-7.6,0-15.2-3.2-20.6-8.7c-5.4-5.4-8.3-12.6-8.3-20.9c0-7.9,2.9-15.5,8.3-20.9c5.8-5.1,13-8.3,20.6-8.3c8.3,0,15.5,2.9,20.9,8.3
	l1.4,1.4l-8.3,8.7l-1.4-1.4c-4-3.6-7.9-5.4-12.3-5.4c-9.4,0-17.3,7.9-17.3,17.7s7.6,17.7,17.3,17.7c4.3,0,8.3-1.8,12.3-5.1l1.4-1.4
	l8.7,8.3l-1.8,1.4C348.7,347.6,341.8,350.5,334.2,350.5z M377.5,349h-12.6v-28.1c0-18,7.9-26.7,25.3-28.1l2.5-0.4v11.9l-1.8,0.4
	c-9.4,1.1-13,5.4-13,15.5V349H377.5z M425.5,350.5c-7.6,0-15.2-3.2-20.6-8.7c-5.4-5.4-8.3-13-8.3-20.9c0-7.9,2.9-15.2,8.3-20.9
	c5.4-5.8,12.6-8.7,20.6-8.7c7.6,0,14.8,3.2,20.2,8.7s8.3,13,8.3,20.9c0,7.9-2.9,15.5-8.3,20.9C440.3,347.6,433.1,350.5,425.5,350.5z
	 M425.1,303.6c-9,0-16.6,7.9-16.6,17.7s7.6,17.7,16.6,17.7c9.4,0,16.6-7.6,16.6-17.7C442.1,311.2,434.5,303.6,425.1,303.6z
	 M473.9,349c-4.3,0-8.3-3.6-8.3-8.3c0-4.7,3.6-8.3,8.3-8.3c4.7,0,8.3,3.6,8.3,8.3C481.8,345.4,478.2,349,473.9,349z M473.9,307.9
	c-4.3,0-8.3-3.6-8.3-8.3c0-4.7,3.6-8.3,8.3-8.3c4.7,0,8.3,3.6,8.3,8.3C481.8,304.3,478.2,307.9,473.9,307.9z M522.2,350.5
	c-17,0-28.9-13.3-28.9-32.1v-52h11.9v30.7c5.1-3.6,10.8-5.4,17-5.4c7.6,0,14.8,2.9,20.2,8.7c5.4,5.4,8.3,13,8.3,20.9
	s-2.9,15.5-8.3,20.9S529.8,350.5,522.2,350.5z M522.2,303.6c-9.4,0-17.3,7.9-17.3,17.7s7.6,17.7,17.3,17.7c9.4,0,17.3-7.9,17.3-17.7
	C539.2,311.5,531.6,303.6,522.2,303.6z M573.1,349h-11.9v-55.9h11.9V349z M566.9,284.8c-4.3,0-7.6-3.2-7.6-7.6
	c0-4.3,3.2-7.6,7.6-7.6c4.3,0,7.6,3.2,7.6,7.6C574.9,281.6,571.3,284.8,566.9,284.8z M617.4,350.9l-2.5-0.4
	c-17.7-3.2-24.2-11.9-24.2-31v-14.1h-5.1v-11.5h5.1v-12.6h11.9v12.3h14.8V305h-14.8v15.9c0,10.5,4,15.9,13,17l1.8,0.4L617.4,350.9
	L617.4,350.9z M133.6,330.6c5.4,0,9.4-4.3,9.4-9.4s-4.3-9.4-9.4-9.4c-5.4,0-9.4,4.3-9.4,9.4S128.6,330.6,133.6,330.6 M64.4,311.9
	c-5.4,0-9.4,4.3-9.4,9.4s4.3,9.4,9.4,9.4s9.4-4.3,9.4-9.4S69.4,311.9,64.4,311.9 M64.4,293.1c-15.5,0-28.1,12.6-28.1,28.1
	s12.6,28.1,28.1,28.1h70.4c15.5,0,28.1-12.6,28.1-28.1s-12.6-28.1-28.1-28.1H64.4 M134.7,368.2H64.4c-26,0-46.9-20.9-46.9-46.9
	s20.9-46.9,46.9-46.9h70.4c26,0,46.9,20.9,46.9,46.9S160.3,368.2,134.7,368.2"/>
</svg>
